<svg width="20" height="15" viewBox="0 0 20 15" fill="none" xmlns="http://www.w3.org/2000/svg">
<g opacity="0.6">
<path d="M11.9356 4.96745C11.7786 4.81049 11.5234 4.81049 11.3665 4.96745C11.2095 5.12441 11.2095 5.38038 11.3665 5.53655C11.8221 5.99216 12.074 6.59827 12.074 7.24382C12.074 8.57516 10.9906 9.65862 9.65922 9.65862C9.01368 9.65862 8.40756 9.40748 7.95196 8.95108C7.795 8.79412 7.53982 8.79412 7.38286 8.95108C7.2259 9.10725 7.2259 9.36322 7.38286 9.52018C7.98977 10.1287 8.79872 10.4636 9.65922 10.4636C11.4349 10.4636 12.8789 9.01952 12.8789 7.24385C12.8789 6.38332 12.5441 5.57436 11.9356 4.96745Z" fill="#A0A0A0"/>
<path d="M10.2204 4.07965C10.0377 4.04746 9.85098 4.02411 9.65942 4.02411C7.88375 4.02411 6.4397 5.46816 6.4397 7.24383C6.4397 7.43539 6.46305 7.62216 6.49603 7.80485C6.53063 7.99966 6.7005 8.1373 6.89126 8.1373C6.91462 8.1373 6.93794 8.13568 6.96209 8.13085C7.18021 8.09222 7.32672 7.88292 7.28808 7.6648C7.26314 7.52794 7.24462 7.38872 7.24462 7.24383C7.24462 5.91248 8.32807 4.82903 9.65942 4.82903C9.8043 4.82903 9.94357 4.84756 10.0804 4.8717C10.2945 4.91517 10.5078 4.76383 10.5464 4.54571C10.5851 4.32758 10.4386 4.11829 10.2204 4.07965Z" fill="#A0A0A0"/>
<path d="M19.2226 6.98378C19.1316 6.87591 16.9543 4.33474 13.9511 2.77882C13.7563 2.67661 13.5108 2.75388 13.4086 2.95189C13.3064 3.14912 13.3836 3.39218 13.5816 3.49443C15.895 4.69217 17.7431 6.56123 18.375 7.24382C17.4156 8.28298 13.6396 12.0734 9.65922 12.0734C8.30855 12.0734 6.9474 11.7474 5.61202 11.1035C5.414 11.0061 5.17173 11.0906 5.07514 11.291C4.97775 11.4907 5.06227 11.7313 5.2627 11.8279C6.70754 12.5258 8.18702 12.8783 9.65926 12.8783C14.6185 12.8783 19.0375 7.72354 19.2235 7.50379C19.3506 7.35403 19.3498 7.13429 19.2226 6.98378Z" fill="#A0A0A0"/>
<path d="M12.3002 2.07296C11.3842 1.76465 10.4956 1.60931 9.65925 1.60931C4.70005 1.60931 0.280964 6.76412 0.0950242 6.98386C-0.0225086 7.1223 -0.0321678 7.32356 0.0724987 7.47407C0.128039 7.55376 1.45859 9.44292 3.76473 10.9747C3.83313 11.0206 3.90961 11.0423 3.98689 11.0423C4.11649 11.0423 4.24448 10.9796 4.32175 10.8612C4.44491 10.6769 4.3942 10.4266 4.20905 10.3042C2.51548 9.17812 1.35638 7.81859 0.922508 7.2656C1.849 6.25943 5.64989 2.41427 9.65925 2.41427C10.4086 2.41427 11.2112 2.55595 12.0435 2.83524C12.2543 2.91089 12.4829 2.79419 12.553 2.58248C12.6238 2.3716 12.5111 2.14381 12.3002 2.07296Z" fill="#A0A0A0"/>
<path d="M16.7852 0.117721C16.6282 -0.0392405 16.3731 -0.0392405 16.2161 0.117721L2.53227 13.8016C2.37531 13.9586 2.37531 14.2137 2.53227 14.3707C2.61117 14.4488 2.71417 14.4882 2.81722 14.4882C2.92026 14.4882 3.02327 14.4488 3.10137 14.3707L16.7852 0.686822C16.9422 0.52986 16.9422 0.274683 16.7852 0.117721Z" fill="#A0A0A0"/>
</g>
</svg>
