<svg width="20" height="12" viewBox="0 0 20 12" fill="none" xmlns="http://www.w3.org/2000/svg">
<g opacity="0.6">
<path d="M19.6406 5.51663C19.4854 5.29072 15.7545 0 9.85676 0C4.79602 0 0.286458 5.26034 0.0967118 5.48459C-0.0322373 5.63737 -0.0322373 5.86162 0.0967118 6.01521C0.286458 6.23946 4.79602 11.4998 9.85676 11.4998C14.9175 11.4998 19.427 6.23946 19.6168 6.01521C19.7359 5.87394 19.7466 5.66941 19.6406 5.51663ZM9.85676 10.6784C5.79981 10.6784 1.94243 6.80954 0.962507 5.74992C1.94081 4.68949 5.79407 0.821439 9.85676 0.821439C14.6037 0.821439 17.9543 4.68456 18.7724 5.72774C17.8277 6.75367 13.9482 10.6784 9.85676 10.6784Z" fill="#A0A0A0"/>
<path d="M9.85669 2.46423C8.04466 2.46423 6.57104 3.93785 6.57104 5.74987C6.57104 7.5619 8.04466 9.03552 9.85669 9.03552C11.6687 9.03552 13.1423 7.5619 13.1423 5.74987C13.1423 3.93785 11.6687 2.46423 9.85669 2.46423ZM9.85669 8.21415C8.49808 8.21415 7.39245 7.10852 7.39245 5.74991C7.39245 4.39131 8.49808 3.28567 9.85669 3.28567C11.2153 3.28567 12.3209 4.39131 12.3209 5.74991C12.3209 7.10852 11.2153 8.21415 9.85669 8.21415Z" fill="#A0A0A0"/>
</g>
</svg>
