<svg width="237" height="52" viewBox="0 0 237 52" fill="none" xmlns="http://www.w3.org/2000/svg">
<path d="M4.376 25.832C4.376 23.656 4.86667 21.704 5.848 19.976C6.82933 18.2267 8.16267 16.8613 9.848 15.88C11.5547 14.8987 13.4427 14.408 15.512 14.408C17.944 14.408 20.0667 14.9947 21.88 16.168C23.6933 17.3413 25.016 19.0053 25.848 21.16H22.36C21.7413 19.816 20.8453 18.7813 19.672 18.056C18.52 17.3307 17.1333 16.968 15.512 16.968C13.9547 16.968 12.5573 17.3307 11.32 18.056C10.0827 18.7813 9.112 19.816 8.408 21.16C7.704 22.4827 7.352 24.04 7.352 25.832C7.352 27.6027 7.704 29.16 8.408 30.504C9.112 31.8267 10.0827 32.8507 11.32 33.576C12.5573 34.3013 13.9547 34.664 15.512 34.664C17.1333 34.664 18.52 34.312 19.672 33.608C20.8453 32.8827 21.7413 31.848 22.36 30.504H25.848C25.016 32.6373 23.6933 34.2907 21.88 35.464C20.0667 36.616 17.944 37.192 15.512 37.192C13.4427 37.192 11.5547 36.712 9.848 35.752C8.16267 34.7707 6.82933 33.416 5.848 31.688C4.86667 29.96 4.376 28.008 4.376 25.832ZM41.9268 37L36.6148 27.88H33.0948V37H30.1828V14.696H37.3828C39.0681 14.696 40.4868 14.984 41.6388 15.56C42.8121 16.136 43.6868 16.9147 44.2628 17.896C44.8388 18.8773 45.1268 19.9973 45.1268 21.256C45.1268 22.792 44.6788 24.1467 43.7828 25.32C42.9081 26.4933 41.5854 27.272 39.8148 27.656L45.4148 37H41.9268ZM33.0948 25.544H37.3828C38.9614 25.544 40.1454 25.16 40.9348 24.392C41.7241 23.6027 42.1188 22.5573 42.1188 21.256C42.1188 19.9333 41.7241 18.9093 40.9348 18.184C40.1668 17.4587 38.9828 17.096 37.3828 17.096H33.0948V25.544ZM65.2675 14.696L58.0035 28.584V37H55.0915V28.584L47.7955 14.696H51.0275L56.5315 25.992L62.0355 14.696H65.2675ZM83.251 21.224C83.251 23.08 82.611 24.6267 81.331 25.864C80.0723 27.08 78.1417 27.688 75.539 27.688H71.251V37H68.339V14.696H75.539C78.0563 14.696 79.9657 15.304 81.267 16.52C82.5897 17.736 83.251 19.304 83.251 21.224ZM75.539 25.288C77.1603 25.288 78.355 24.936 79.123 24.232C79.891 23.528 80.275 22.5253 80.275 21.224C80.275 18.472 78.6963 17.096 75.539 17.096H71.251V25.288H75.539ZM100.598 14.696V17.064H94.5183V37H91.6063V17.064H85.4943V14.696H100.598ZM114.295 37.224C112.225 37.224 110.337 36.744 108.631 35.784C106.924 34.8027 105.569 33.448 104.567 31.72C103.585 29.9707 103.095 28.008 103.095 25.832C103.095 23.656 103.585 21.704 104.567 19.976C105.569 18.2267 106.924 16.872 108.631 15.912C110.337 14.9307 112.225 14.44 114.295 14.44C116.385 14.44 118.284 14.9307 119.991 15.912C121.697 16.872 123.041 18.216 124.023 19.944C125.004 21.672 125.495 23.6347 125.495 25.832C125.495 28.0293 125.004 29.992 124.023 31.72C123.041 33.448 121.697 34.8027 119.991 35.784C118.284 36.744 116.385 37.224 114.295 37.224ZM114.295 34.696C115.852 34.696 117.249 34.3333 118.487 33.608C119.745 32.8827 120.727 31.848 121.431 30.504C122.156 29.16 122.519 27.6027 122.519 25.832C122.519 24.04 122.156 22.4827 121.431 21.16C120.727 19.816 119.756 18.7813 118.519 18.056C117.281 17.3307 115.873 16.968 114.295 16.968C112.716 16.968 111.308 17.3307 110.071 18.056C108.833 18.7813 107.852 19.816 107.127 21.16C106.423 22.4827 106.071 24.04 106.071 25.832C106.071 27.6027 106.423 29.16 107.127 30.504C107.852 31.848 108.833 32.8827 110.071 33.608C111.329 34.3333 112.737 34.696 114.295 34.696Z" fill="white"/>
<path d="M137.275 14.536C139.643 14.536 141.712 15.0053 143.483 15.944C145.254 16.8827 146.619 18.2053 147.579 19.912C148.56 21.5973 149.051 23.5493 149.051 25.768C149.051 27.9653 148.56 29.9173 147.579 31.624C146.619 33.3307 145.243 34.6533 143.451 35.592C141.68 36.5307 139.622 37 137.275 37H128.859V14.536H137.275ZM136.923 32.264C138.992 32.264 140.603 31.6987 141.755 30.568C142.907 29.4373 143.483 27.8373 143.483 25.768C143.483 23.6987 142.907 22.088 141.755 20.936C140.603 19.784 138.992 19.208 136.923 19.208H134.331V32.264H136.923ZM162.733 37.224C160.621 37.224 158.68 36.7333 156.909 35.752C155.16 34.7707 153.762 33.4053 152.717 31.656C151.693 29.8853 151.181 27.9013 151.181 25.704C151.181 23.5067 151.693 21.5333 152.717 19.784C153.762 18.0347 155.16 16.6693 156.909 15.688C158.68 14.7067 160.621 14.216 162.733 14.216C164.845 14.216 166.776 14.7067 168.525 15.688C170.296 16.6693 171.682 18.0347 172.685 19.784C173.709 21.5333 174.221 23.5067 174.221 25.704C174.221 27.9013 173.709 29.8853 172.685 31.656C171.661 33.4053 170.274 34.7707 168.525 35.752C166.776 36.7333 164.845 37.224 162.733 37.224ZM162.733 32.232C164.525 32.232 165.954 31.6347 167.021 30.44C168.109 29.2453 168.653 27.6667 168.653 25.704C168.653 23.72 168.109 22.1413 167.021 20.968C165.954 19.7733 164.525 19.176 162.733 19.176C160.92 19.176 159.469 19.7627 158.381 20.936C157.314 22.1093 156.781 23.6987 156.781 25.704C156.781 27.688 157.314 29.2773 158.381 30.472C159.469 31.6453 160.92 32.232 162.733 32.232ZM185.393 37.224C183.751 37.224 182.279 36.9573 180.977 36.424C179.676 35.8907 178.631 35.1013 177.841 34.056C177.073 33.0107 176.668 31.752 176.625 30.28H182.449C182.535 31.112 182.823 31.752 183.313 32.2C183.804 32.6267 184.444 32.84 185.233 32.84C186.044 32.84 186.684 32.6587 187.153 32.296C187.623 31.912 187.857 31.3893 187.857 30.728C187.857 30.1733 187.665 29.7147 187.281 29.352C186.919 28.9893 186.46 28.6907 185.905 28.456C185.372 28.2213 184.604 27.9547 183.601 27.656C182.151 27.208 180.967 26.76 180.049 26.312C179.132 25.864 178.343 25.2027 177.681 24.328C177.02 23.4533 176.689 22.312 176.689 20.904C176.689 18.8133 177.447 17.1813 178.961 16.008C180.476 14.8133 182.449 14.216 184.881 14.216C187.356 14.216 189.351 14.8133 190.865 16.008C192.38 17.1813 193.191 18.824 193.297 20.936H187.377C187.335 20.2107 187.068 19.6453 186.577 19.24C186.087 18.8133 185.457 18.6 184.689 18.6C184.028 18.6 183.495 18.7813 183.089 19.144C182.684 19.4853 182.481 19.9867 182.481 20.648C182.481 21.3733 182.823 21.9387 183.505 22.344C184.188 22.7493 185.255 23.1867 186.705 23.656C188.156 24.1467 189.329 24.616 190.225 25.064C191.143 25.512 191.932 26.1627 192.593 27.016C193.255 27.8693 193.585 28.968 193.585 30.312C193.585 31.592 193.255 32.7547 192.593 33.8C191.953 34.8453 191.015 35.6773 189.777 36.296C188.54 36.9147 187.079 37.224 185.393 37.224ZM216.409 14.536V37H210.937V27.752H202.425V37H196.953V14.536H202.425V23.336H210.937V14.536H216.409Z" fill="#00AAFF"/>
<path d="M220.696 32.096C220.419 32.096 220.184 32 219.992 31.808C219.8 31.616 219.704 31.3813 219.704 31.104C219.704 30.8267 219.8 30.592 219.992 30.4C220.184 30.208 220.419 30.112 220.696 30.112C220.963 30.112 221.187 30.208 221.368 30.4C221.56 30.592 221.656 30.8267 221.656 31.104C221.656 31.3813 221.56 31.616 221.368 31.808C221.187 32 220.963 32.096 220.696 32.096ZM224.343 21.808C224.066 21.808 223.831 21.712 223.639 21.52C223.447 21.328 223.351 21.0933 223.351 20.816C223.351 20.5387 223.447 20.304 223.639 20.112C223.831 19.92 224.066 19.824 224.343 19.824C224.61 19.824 224.834 19.92 225.015 20.112C225.207 20.304 225.303 20.5387 225.303 20.816C225.303 21.0933 225.207 21.328 225.015 21.52C224.834 21.712 224.61 21.808 224.343 21.808ZM225.047 23.232V32H223.591V23.232H225.047ZM231.353 32.144C230.532 32.144 229.785 31.9573 229.113 31.584C228.452 31.2107 227.929 30.6827 227.545 30C227.172 29.3067 226.985 28.5067 226.985 27.6C226.985 26.704 227.177 25.9147 227.561 25.232C227.956 24.5387 228.489 24.0107 229.161 23.648C229.833 23.2747 230.585 23.088 231.417 23.088C232.249 23.088 233.001 23.2747 233.673 23.648C234.345 24.0107 234.873 24.5333 235.257 25.216C235.652 25.8987 235.849 26.6933 235.849 27.6C235.849 28.5067 235.646 29.3067 235.241 30C234.846 30.6827 234.308 31.2107 233.625 31.584C232.942 31.9573 232.185 32.144 231.353 32.144ZM231.353 30.864C231.876 30.864 232.366 30.7413 232.825 30.496C233.284 30.2507 233.652 29.8827 233.929 29.392C234.217 28.9013 234.361 28.304 234.361 27.6C234.361 26.896 234.222 26.2987 233.945 25.808C233.668 25.3173 233.305 24.9547 232.857 24.72C232.409 24.4747 231.924 24.352 231.401 24.352C230.868 24.352 230.377 24.4747 229.929 24.72C229.492 24.9547 229.14 25.3173 228.873 25.808C228.606 26.2987 228.473 26.896 228.473 27.6C228.473 28.3147 228.601 28.9173 228.857 29.408C229.124 29.8987 229.476 30.2667 229.913 30.512C230.35 30.7467 230.83 30.864 231.353 30.864Z" fill="white"/>
</svg>
