<svg width="14" height="8" viewBox="0 0 14 8" fill="none" xmlns="http://www.w3.org/2000/svg">
<path fill-rule="evenodd" clip-rule="evenodd" d="M12.8551 6.85494C12.8086 6.9015 12.7534 6.93844 12.6927 6.96365C12.6319 6.98886 12.5668 7.00183 12.5011 7.00183C12.4353 7.00183 12.3702 6.98886 12.3094 6.96365C12.2487 6.93844 12.1935 6.9015 12.1471 6.85494L6.50106 1.20794L0.85506 6.85494C0.808572 6.90142 0.753383 6.9383 0.692643 6.96346C0.631904 6.98862 0.566803 7.00157 0.50106 7.00157C0.435316 7.00157 0.370215 6.98862 0.309476 6.96346C0.248736 6.9383 0.193547 6.90142 0.147059 6.85494C0.100572 6.80845 0.0636952 6.75326 0.0385361 6.69252C0.013377 6.63178 0.000428238 6.56668 0.000428244 6.50094C0.000428249 6.43519 0.013377 6.37009 0.0385361 6.30935C0.0636952 6.24861 0.100572 6.19342 0.14706 6.14694L6.14706 0.146937C6.19351 0.100374 6.24868 0.063431 6.30943 0.0382246C6.37017 0.0130181 6.43529 4.32949e-05 6.50106 4.33007e-05C6.56683 4.33064e-05 6.63195 0.0130182 6.69269 0.0382246C6.75344 0.0634311 6.80861 0.100374 6.85506 0.146937L12.8551 6.14694C12.9016 6.19338 12.9386 6.24856 12.9638 6.3093C12.989 6.37005 13.002 6.43517 13.002 6.50094C13.002 6.5667 12.989 6.63183 12.9638 6.69257C12.9386 6.75332 12.9016 6.80849 12.8551 6.85494V6.85494Z" fill="white"/>
</svg>
